<svg width="40" height="40" viewBox="0 0 40 40" fill="none" xmlns="http://www.w3.org/2000/svg">
<path fill-rule="evenodd" clip-rule="evenodd" d="M27.5 10C27.5 9.30964 28.0596 8.75 28.75 8.75H35C35.6904 8.75 36.25 9.30964 36.25 10C36.25 10.6904 35.6904 11.25 35 11.25H28.75C28.0596 11.25 27.5 10.6904 27.5 10Z" fill="#1F2424"/>
<path fill-rule="evenodd" clip-rule="evenodd" d="M3.75 10C3.75 9.30964 4.30964 8.75 5 8.75H23.75C24.4404 8.75 25 9.30964 25 10C25 10.6904 24.4404 11.25 23.75 11.25H5C4.30964 11.25 3.75 10.6904 3.75 10Z" fill="#1F2424"/>
<path fill-rule="evenodd" clip-rule="evenodd" d="M27.5 30C27.5 29.3096 28.0596 28.75 28.75 28.75H35C35.6904 28.75 36.25 29.3096 36.25 30C36.25 30.6904 35.6904 31.25 35 31.25H28.75C28.0596 31.25 27.5 30.6904 27.5 30Z" fill="#1F2424"/>
<path fill-rule="evenodd" clip-rule="evenodd" d="M3.75 30C3.75 29.3096 4.30964 28.75 5 28.75H23.75C24.4404 28.75 25 29.3096 25 30C25 30.6904 24.4404 31.25 23.75 31.25H5C4.30964 31.25 3.75 30.6904 3.75 30Z" fill="#1F2424"/>
<path fill-rule="evenodd" clip-rule="evenodd" d="M15 20C15 19.3096 15.5596 18.75 16.25 18.75H35C35.6904 18.75 36.25 19.3096 36.25 20C36.25 20.6904 35.6904 21.25 35 21.25H16.25C15.5596 21.25 15 20.6904 15 20Z" fill="#1F2424"/>
<path fill-rule="evenodd" clip-rule="evenodd" d="M3.75 20C3.75 19.3096 4.30964 18.75 5 18.75H11.25C11.9404 18.75 12.5 19.3096 12.5 20C12.5 20.6904 11.9404 21.25 11.25 21.25H5C4.30964 21.25 3.75 20.6904 3.75 20Z" fill="#1F2424"/>
<path fill-rule="evenodd" clip-rule="evenodd" d="M26.25 8.75C25.5596 8.75 25 9.30964 25 10C25 10.6904 25.5596 11.25 26.25 11.25C26.9404 11.25 27.5 10.6904 27.5 10C27.5 9.30964 26.9404 8.75 26.25 8.75ZM22.5 10C22.5 7.92893 24.1789 6.25 26.25 6.25C28.3211 6.25 30 7.92893 30 10C30 12.0711 28.3211 13.75 26.25 13.75C24.1789 13.75 22.5 12.0711 22.5 10Z" fill="#1F2424"/>
<path fill-rule="evenodd" clip-rule="evenodd" d="M13.75 18.75C13.0596 18.75 12.5 19.3096 12.5 20C12.5 20.6904 13.0596 21.25 13.75 21.25C14.4404 21.25 15 20.6904 15 20C15 19.3096 14.4404 18.75 13.75 18.75ZM10 20C10 17.9289 11.6789 16.25 13.75 16.25C15.8211 16.25 17.5 17.9289 17.5 20C17.5 22.0711 15.8211 23.75 13.75 23.75C11.6789 23.75 10 22.0711 10 20Z" fill="#1F2424"/>
<path fill-rule="evenodd" clip-rule="evenodd" d="M26.25 28.75C25.5596 28.75 25 29.3096 25 30C25 30.6904 25.5596 31.25 26.25 31.25C26.9404 31.25 27.5 30.6904 27.5 30C27.5 29.3096 26.9404 28.75 26.25 28.75ZM22.5 30C22.5 27.9289 24.1789 26.25 26.25 26.25C28.3211 26.25 30 27.9289 30 30C30 32.0711 28.3211 33.75 26.25 33.75C24.1789 33.75 22.5 32.0711 22.5 30Z" fill="#1F2424"/>
</svg>
