<svg width="24" height="24" viewBox="0 0 24 24" fill="none" xmlns="http://www.w3.org/2000/svg">
<g clip-path="url(#clip0_2508_70425)">
<path d="M18.6673 18.6673L17.334 17.334M11.6673 18.0007C12.499 18.0007 13.3226 17.8368 14.091 17.5186C14.8594 17.2003 15.5576 16.7338 16.1457 16.1457C16.7338 15.5576 17.2003 14.8594 17.5186 14.091C17.8368 13.3226 18.0007 12.499 18.0007 11.6673C18.0007 10.8356 17.8368 10.0121 17.5186 9.24366C17.2003 8.47526 16.7338 7.77708 16.1457 7.18897C15.5576 6.60087 14.8594 6.13436 14.091 5.81608C13.3226 5.4978 12.499 5.33398 11.6673 5.33398C9.98761 5.33398 8.3767 6.00124 7.18897 7.18897C6.00124 8.3767 5.33398 9.98761 5.33398 11.6673C5.33398 13.347 6.00124 14.9579 7.18897 16.1457C8.3767 17.3334 9.98761 18.0007 11.6673 18.0007Z" stroke="#1F2424" stroke-width="1.5" stroke-linecap="round" stroke-linejoin="round"/>
</g>
<defs>
<clipPath id="clip0_2508_70425">
<rect width="16" height="16" fill="white" transform="translate(4 4)"/>
</clipPath>
</defs>
</svg>
